# xmcd
#
# Track frame offsets:
# 150
# 13722
# 24351
# 43941
# 54884
# 63838
# 74301
# 87589
# 98898
# 114680
# 132499
# 145883
# 160905
# 171656
#
# Disc length: 2399 seconds
#
# Revision: 2
# Processed by: cddbd v1.5.1PL0 Copyright (c) Steve Scherf et al.
# Submitted via: Axialis_AX_CDPlayer 2.6
#
DISCID=c7095d0e
DTITLE=Dixie Chicks - Thank Heavens for Dale Evans
DYEAR=1900
DGENRE=
TTITLE0=The Cowboy Lives Forever
TTITLE1=I Want to be a Cowboy's Sweetheart
TTITLE2=Thunderheads
TTITLE3=Long Roads
TTITLE4=Who Will be the Next One
TTITLE5=Brilliancy
TTITLE6=Thank Heavens for Dale Evans
TTITLE7=This Heart of Mine
TTITLE8=Storm Out on the Sea
TTITLE9=West Texas Wind
TTITLE10=Rider
TTITLE11=Green River
TTITLE12=Salty
TTITLE13=Bring It on Home to Me
EXTD=
EXTT0=
EXTT1=
EXTT2=
EXTT3=
EXTT4=
EXTT5=
EXTT6=
EXTT7=
EXTT8=
EXTT9=
EXTT10=
EXTT11=
EXTT12=
EXTT13=
PLAYORDER=
